<svg width="16" height="13" viewBox="0 0 16 13" fill="none" xmlns="http://www.w3.org/2000/svg">
<path d="M8.86797 0.860352L6.53464 3.19369L7.0013 3.66702L7.93464 2.74035L8.66797 3.47369V5.00035C8.66797 5.74035 8.07464 6.33368 7.33464 6.33368H6.97464C7.63351 7.06585 7.99908 8.01538 8.0013 9.00035C7.99996 9.22386 7.97989 9.44686 7.9413 9.66702H10.0213C10.1033 8.9339 10.4525 8.25668 11.0022 7.76476C11.5519 7.27284 12.2636 7.0007 13.0013 7.00035C13.5947 7.00068 14.1748 7.177 14.668 7.50702V4.33368C14.668 3.59368 14.0746 3.00035 13.3346 3.00035H9.1413L8.40797 2.26702L9.33464 1.33368L8.86797 0.860352ZM2.66797 3.66702C2.3013 3.66702 2.0013 3.96702 2.0013 4.33368C2.0013 4.70035 2.3013 5.00035 2.66797 5.00035H6.0013C6.0013 4.64673 5.86083 4.30759 5.61078 4.05754C5.36073 3.80749 5.02159 3.66702 4.66797 3.66702H2.66797ZM4.0013 5.66702C3.64799 5.66711 3.29695 5.72336 2.9613 5.83368L3.2013 6.45369L2.88797 6.57368L2.66797 5.95369C1.95936 6.26146 1.37966 6.80581 1.02797 7.49368L1.63464 7.76702L1.49464 8.06702L0.894635 7.80035C0.745826 8.18298 0.668981 8.58981 0.667969 9.00035C0.668057 9.35366 0.724315 9.70471 0.834635 10.0404L1.45464 9.80035L1.57464 10.1137L0.954635 10.3337C1.26241 11.0423 1.80676 11.622 2.49464 11.9737L2.7613 11.367L3.06797 11.507L2.8013 12.107C3.18393 12.2558 3.59076 12.3327 4.0013 12.3337C4.35461 12.3336 4.70566 12.2773 5.0413 12.167L4.8013 11.547L5.11464 11.427L5.33464 12.047C6.04325 11.7392 6.62295 11.1949 6.97464 10.507L6.36797 10.2404L6.50797 9.93369L7.10797 10.2004C7.25678 9.81772 7.33362 9.4109 7.33464 9.00035C7.33455 8.64704 7.27829 8.29599 7.16797 7.96035L6.54797 8.20035L6.42797 7.88702L7.04797 7.66702C6.7402 6.95841 6.19584 6.37871 5.50797 6.02702L5.2413 6.63369L4.93464 6.49368L5.2013 5.89369C4.81867 5.74488 4.41185 5.66803 4.0013 5.66702ZM4.0013 7.00035C4.53174 7.00035 5.04044 7.21107 5.41552 7.58614C5.79059 7.96121 6.0013 8.46992 6.0013 9.00035C6.0013 9.53078 5.79059 10.0395 5.41552 10.4146C5.04044 10.7896 4.53174 11.0004 4.0013 11.0004C3.47087 11.0004 2.96216 10.7896 2.58709 10.4146C2.21202 10.0395 2.0013 9.53078 2.0013 9.00035C2.0013 8.46992 2.21202 7.96121 2.58709 7.58614C2.96216 7.21107 3.47087 7.00035 4.0013 7.00035ZM13.0013 7.66702C12.3825 7.66702 11.789 7.91285 11.3514 8.35044C10.9138 8.78802 10.668 9.38151 10.668 10.0004C10.668 10.6192 10.9138 11.2127 11.3514 11.6503C11.789 12.0879 12.3825 12.3337 13.0013 12.3337C13.6201 12.3337 14.2136 12.0879 14.6512 11.6503C15.0888 11.2127 15.3346 10.6192 15.3346 10.0004C15.3346 9.38151 15.0888 8.78802 14.6512 8.35044C14.2136 7.91285 13.6201 7.66702 13.0013 7.66702ZM13.0013 9.00035C13.2665 9.00035 13.5209 9.10571 13.7084 9.29325C13.8959 9.48078 14.0013 9.73514 14.0013 10.0004C14.0013 10.2656 13.8959 10.5199 13.7084 10.7075C13.5209 10.895 13.2665 11.0004 13.0013 11.0004C12.7361 11.0004 12.4817 10.895 12.2942 10.7075C12.1067 10.5199 12.0013 10.2656 12.0013 10.0004C12.0013 9.73514 12.1067 9.48078 12.2942 9.29325C12.4817 9.10571 12.7361 9.00035 13.0013 9.00035Z" fill="#F95F09"/>
</svg>
