<svg width="14" height="16" viewBox="0 0 14 16" fill="none" xmlns="http://www.w3.org/2000/svg">
<path d="M5.07572 -5.37522e-05C4.98641 0.013228 4.90111 0.0460032 4.82588 0.0959463C4.82588 0.0959463 4.04742 0.585792 3.21049 1.11564C2.37357 1.64487 1.44249 2.22825 1.22957 2.34641C1.21644 2.35211 1.20351 2.35827 1.1908 2.36487C0.417879 2.84179 0.257263 3.62087 0.229571 4.05779C0.227725 4.0781 0.229571 4.09472 0.229571 4.11625C0.222802 4.27995 0.229571 4.38518 0.229571 4.38518V12.4239C0.229571 13.5919 1.59142 14.1538 2.88372 14.1538C3.31449 14.1538 3.74526 14.0843 4.11449 13.9612C4.36065 13.8381 4.53726 13.5919 4.53726 13.3458V6.88425C4.53726 5.46887 4.84495 4.80425 5.76803 4.25041C6.01419 4.12733 8.59511 2.34579 8.59511 2.34579C8.71819 2.22272 8.84495 1.97287 8.84495 1.78825V1.73041C8.84495 1.48425 8.72188 1.29595 8.53726 1.17287C8.35265 1.04979 8.10649 1.04979 7.92188 1.17287C7.86034 1.23441 4.10649 3.76179 3.30649 4.19256C2.50649 4.68487 1.76003 4.80364 1.57542 4.55749C1.51819 4.50025 1.46834 4.32487 1.46034 4.15379V4.11502C1.46096 3.94764 1.50403 3.63256 1.84496 3.42272C2.1908 3.2301 3.04926 2.68179 3.88372 2.15379C4.23634 1.93041 4.28003 1.90641 4.55634 1.73041C4.59271 1.88074 4.68436 2.01187 4.81305 2.09768C4.94173 2.18349 5.09801 2.2177 5.25078 2.1935C5.40354 2.16929 5.54159 2.08844 5.63744 1.96705C5.73329 1.84566 5.77992 1.69262 5.76803 1.53841V0.615331C5.76872 0.527617 5.75065 0.440769 5.71503 0.36061C5.67941 0.280451 5.62707 0.208833 5.56151 0.150558C5.49595 0.0922819 5.41868 0.0486951 5.3349 0.0227193C5.25112 -0.0032565 5.16275 -0.011021 5.07572 -5.37522e-05ZM9.9988 2.15379C9.90094 2.17007 9.80847 2.20976 9.72926 2.26948C9.72926 2.26948 6.63142 4.35379 6.0948 4.71133C6.0883 4.71775 6.08194 4.72432 6.07572 4.73102C5.63019 5.06518 5.36619 5.46272 5.24865 5.82641C5.18279 6.03158 5.15037 6.24601 5.15265 6.46148V6.6541C5.15176 6.67317 5.15176 6.69226 5.15265 6.71133V14.1538C5.15265 15.323 6.49911 15.9999 7.72988 15.9999C8.28372 15.9999 8.78342 15.8806 9.15265 15.6344C9.89111 15.2036 13.4603 12.4233 13.4603 12.4233C13.645 12.3003 13.768 12.1267 13.768 11.9421V3.9421C13.768 3.63441 13.6486 3.44979 13.4025 3.32672C13.2179 3.20364 12.9145 3.26148 12.7299 3.38456C11.7453 4.12302 9.0948 6.20795 8.47942 6.57718C7.61788 7.06948 6.80619 7.19256 6.49849 6.88487C6.37542 6.76179 6.38342 6.6461 6.38342 6.46148C6.38711 6.35564 6.3988 6.26456 6.42219 6.19195C6.45665 6.08487 6.5268 5.95318 6.78711 5.7501C6.79942 5.74025 6.79326 5.74087 6.80619 5.73102C7.25111 5.43379 8.61172 4.50641 9.49911 3.90333C9.54938 4.0382 9.64534 4.15119 9.7703 4.22263C9.89526 4.29407 10.0413 4.31945 10.183 4.29435C10.3248 4.26925 10.4532 4.19527 10.546 4.08526C10.6389 3.97525 10.6902 3.83619 10.6911 3.69225V2.76918C10.6918 2.68146 10.6737 2.59462 10.6381 2.51446C10.6025 2.4343 10.5501 2.36268 10.4846 2.3044C10.419 2.24613 10.3418 2.20254 10.258 2.17657C10.1742 2.15059 10.0858 2.14283 9.9988 2.15379ZM12.5373 6.6541V7.88487L9.46034 10.2689V9.0381L12.5373 6.6541Z" fill="#F95F09"/>
</svg>
