<svg width="20" height="20" viewBox="0 0 20 20" fill="none" xmlns="http://www.w3.org/2000/svg">
<path d="M0.398448 9.99995C0.398972 7.90214 1.08664 5.86224 2.35627 4.19226C3.62591 2.52227 5.40761 1.31413 7.42888 0.752627C9.45015 0.191119 11.5997 0.307151 13.5488 1.08298C15.4979 1.8588 17.1392 3.25171 18.2217 5.04867C19.3041 6.84562 19.7682 8.94769 19.5429 11.0334C19.3176 13.119 18.4153 15.0735 16.9741 16.5978C15.5328 18.1222 13.6319 19.1324 11.5621 19.4741C9.49233 19.8158 7.36758 19.4702 5.51285 18.49L1.14485 19.5819C1.04432 19.6072 0.938958 19.606 0.839034 19.5784C0.73911 19.5509 0.648031 19.4979 0.574675 19.4247C0.501318 19.3514 0.448186 19.2604 0.420457 19.1606C0.392727 19.0607 0.391346 18.9553 0.416448 18.8547L1.50845 14.4855C0.777281 13.1036 0.396152 11.5634 0.398448 9.99995ZM9.09845 6.76835C9.28205 6.56075 9.56645 6.39995 9.99845 6.39995C10.4304 6.39995 10.7148 6.56075 10.8984 6.76835C11.0916 6.98915 11.1984 7.29395 11.1984 7.59995C11.1984 7.98035 11.1132 8.22755 10.9992 8.42195C10.878 8.63075 10.716 8.79875 10.4916 9.03395L10.4652 9.06275C10.2384 9.29915 9.96005 9.59555 9.74765 9.99995C9.53165 10.4151 9.39845 10.9131 9.39845 11.5515C9.39845 11.7107 9.46166 11.8633 9.57418 11.9758C9.68671 12.0883 9.83932 12.1515 9.99845 12.1515C10.1576 12.1515 10.3102 12.0883 10.4227 11.9758C10.5352 11.8633 10.5984 11.7107 10.5984 11.5515C10.5984 11.0907 10.6908 10.7859 10.8108 10.5567C10.9368 10.3167 11.1084 10.1259 11.3316 9.89195L11.382 9.84035C11.586 9.62795 11.8404 9.36275 12.036 9.02675C12.2592 8.64275 12.3984 8.18675 12.3984 7.59995C12.3984 7.03235 12.2052 6.43595 11.7984 5.97515C11.382 5.50235 10.7664 5.19995 9.99845 5.19995C9.23045 5.19995 8.61485 5.50235 8.19845 5.97515C7.79045 6.43715 7.59845 7.03115 7.59845 7.59995C7.59845 7.75908 7.66166 7.91169 7.77418 8.02421C7.88671 8.13673 8.03932 8.19995 8.19845 8.19995C8.35758 8.19995 8.51019 8.13673 8.62271 8.02421C8.73523 7.91169 8.79845 7.75908 8.79845 7.59995C8.79845 7.29395 8.90525 6.98795 9.09845 6.76835ZM10.8384 14.2155C10.8384 13.9928 10.7499 13.7791 10.5924 13.6216C10.4349 13.464 10.2212 13.3755 9.99845 13.3755C9.77567 13.3755 9.56201 13.464 9.40448 13.6216C9.24695 13.7791 9.15845 13.9928 9.15845 14.2155C9.15845 14.4383 9.24695 14.652 9.40448 14.8095C9.56201 14.967 9.77567 15.0555 9.99845 15.0555C10.2212 15.0555 10.4349 14.967 10.5924 14.8095C10.7499 14.652 10.8384 14.4383 10.8384 14.2155Z" fill="#4082E6"/>
</svg>
