<svg width="14" height="16" viewBox="0 0 14 16" fill="none" xmlns="http://www.w3.org/2000/svg">
<path d="M8 15.0004C8.00009 15.1708 8.04372 15.3384 8.12674 15.4872C8.20977 15.636 8.32944 15.7611 8.47439 15.8506C8.61935 15.9402 8.78479 15.9912 8.95501 15.9989C9.12523 16.0066 9.29458 15.9706 9.447 15.8944L13.447 13.8944C13.6131 13.8115 13.7528 13.6839 13.8504 13.526C13.9481 13.3681 13.9999 13.1861 14 13.0004V7.23644C13.9999 7.06605 13.9563 6.89851 13.8733 6.74971C13.7902 6.60092 13.6706 6.47581 13.5256 6.38625C13.3806 6.29669 13.2152 6.24566 13.045 6.23799C12.8748 6.23032 12.7054 6.26628 12.553 6.34244L8.553 8.34244C8.38692 8.42543 8.24722 8.55302 8.14955 8.71092C8.05188 8.86881 8.0001 9.05078 8 9.23644V15.0004ZM12.211 4.27644C12.3769 4.1933 12.5164 4.06565 12.6138 3.90777C12.7113 3.74988 12.7629 3.56799 12.7629 3.38244C12.7629 3.19689 12.7113 3.015 12.6138 2.85712C12.5164 2.69923 12.3769 2.57158 12.211 2.48844L7.447 0.106442C7.3082 0.037084 7.15516 0.000976563 7 0.000976562C6.84484 0.000976563 6.6918 0.037084 6.553 0.106442L1.789 2.48844C1.62312 2.57158 1.48364 2.69923 1.38617 2.85712C1.28869 3.015 1.23707 3.19689 1.23707 3.38244C1.23707 3.56799 1.28869 3.74988 1.38617 3.90777C1.48364 4.06565 1.62312 4.1933 1.789 4.27644L6.553 6.65844C6.6918 6.7278 6.84484 6.76391 7 6.76391C7.15516 6.76391 7.3082 6.7278 7.447 6.65844L12.211 4.27644ZM1.447 6.34244C1.29458 6.26628 1.12522 6.23032 0.955006 6.23799C0.784787 6.24566 0.619351 6.29669 0.474394 6.38625C0.329438 6.47581 0.209769 6.60092 0.126744 6.74971C0.0437189 6.89851 9.09694e-05 7.06605 0 7.23644V13.0004C9.91486e-05 13.1861 0.0518831 13.3681 0.149552 13.526C0.247222 13.6839 0.386919 13.8115 0.553 13.8944L4.553 15.8944C4.70542 15.9706 4.87477 16.0066 5.04499 15.9989C5.21521 15.9912 5.38065 15.9402 5.52561 15.8506C5.67056 15.7611 5.79023 15.636 5.87326 15.4872C5.95628 15.3384 5.99991 15.1708 6 15.0004V9.23644C5.9999 9.05078 5.94812 8.86881 5.85045 8.71092C5.75278 8.55302 5.61308 8.42543 5.447 8.34244L1.447 6.34244Z" fill="#4082E6"/>
</svg>
